<svg fill="none" height="20" viewBox="0 0 20 20" width="20" xmlns="http://www.w3.org/2000/svg"><g fill="#212121"><path d="m13.8536 7.85355c.1952-.19526.1952-.51184 0-.7071-.1953-.19527-.5119-.19527-.7072 0l-4.6464 4.64645-1.64645-1.6465c-.19526-.19522-.51184-.19522-.7071 0-.19527.1953-.19527.5119 0 .7072l2 2c.19526.1952.51184.1952.7071 0z"/><path d="m5.68182 3c-1.48113 0-2.68182 1.20069-2.68182 2.68182v8.63638c0 1.4811 1.20069 2.6818 2.68182 2.6818h8.63638c1.4811 0 2.6818-1.2007 2.6818-2.6818v-8.63638c0-1.48113-1.2007-2.68182-2.6818-2.68182zm-1.68182 2.68182c0-.92884.75298-1.68182 1.68182-1.68182h8.63638c.9288 0 1.6818.75298 1.6818 1.68182v8.63638c0 .9288-.753 1.6818-1.6818 1.6818h-8.63638c-.92884 0-1.68182-.753-1.68182-1.6818z"/></g></svg>